<mxfile host="Electron" agent="Mozilla/5.0 (Windows NT 10.0; Win64; x64) AppleWebKit/537.36 (KHTML, like Gecko) draw.io/25.0.2 Chrome/128.0.6613.186 Electron/32.2.5 Safari/537.36" version="25.0.2">
  <diagram name="Page-1" id="HSKVNjrAcE5jeqzVfHoI">
    <mxGraphModel dx="574" dy="1209" grid="1" gridSize="10" guides="1" tooltips="1" connect="1" arrows="1" fold="1" page="1" pageScale="1" pageWidth="1169" pageHeight="827" math="0" shadow="0">
      <root>
        <mxCell id="0" />
        <mxCell id="1" parent="0" />
        <mxCell id="ixohLx9MUgiwNv5kSg_m-21" value="" style="pointerEvents=1;verticalLabelPosition=bottom;shadow=0;dashed=0;align=center;html=1;verticalAlign=top;shape=mxgraph.electrical.signal_sources.signal_ground;fontSize=15;strokeWidth=1.5;" vertex="1" parent="1">
          <mxGeometry x="293" y="-607" width="20" height="14" as="geometry" />
        </mxCell>
        <mxCell id="ixohLx9MUgiwNv5kSg_m-22" value="" style="edgeStyle=segmentEdgeStyle;endArrow=none;html=1;curved=0;rounded=0;endSize=8;startSize=8;strokeColor=#FF00FF;endFill=0;entryX=0.5;entryY=0;entryDx=0;entryDy=0;fontSize=15;exitX=1;exitY=0.5;exitDx=0;exitDy=0;" edge="1" parent="1" target="ixohLx9MUgiwNv5kSg_m-25" source="ixohLx9MUgiwNv5kSg_m-19">
          <mxGeometry width="50" height="50" relative="1" as="geometry">
            <mxPoint x="319.05" y="-596" as="sourcePoint" />
            <mxPoint x="354.05" y="-576" as="targetPoint" />
            <Array as="points" />
          </mxGeometry>
        </mxCell>
        <mxCell id="ixohLx9MUgiwNv5kSg_m-23" value="" style="edgeStyle=segmentEdgeStyle;endArrow=none;html=1;curved=0;rounded=0;endSize=8;startSize=8;strokeColor=#9933FF;endFill=0;entryX=0.5;entryY=1;entryDx=0;entryDy=0;exitX=0.5;exitY=0;exitDx=0;exitDy=0;exitPerimeter=0;fontSize=15;strokeWidth=1.5;" edge="1" parent="1" source="ixohLx9MUgiwNv5kSg_m-21" target="ixohLx9MUgiwNv5kSg_m-25">
          <mxGeometry width="50" height="50" relative="1" as="geometry">
            <mxPoint x="393.05" y="-603.01" as="sourcePoint" />
            <mxPoint x="409.05" y="-582.01" as="targetPoint" />
            <Array as="points">
              <mxPoint x="303" y="-615" />
            </Array>
          </mxGeometry>
        </mxCell>
        <mxCell id="ixohLx9MUgiwNv5kSg_m-29" value="HV&lt;sup&gt;+&lt;/sup&gt;" style="text;html=1;align=center;verticalAlign=middle;whiteSpace=wrap;rounded=0;fontSize=15;" vertex="1" parent="1">
          <mxGeometry x="280" y="-770" width="40" height="30" as="geometry" />
        </mxCell>
        <mxCell id="ixohLx9MUgiwNv5kSg_m-30" value="HV&lt;sup&gt;-&lt;/sup&gt;" style="text;html=1;align=center;verticalAlign=middle;whiteSpace=wrap;rounded=0;fontSize=15;" vertex="1" parent="1">
          <mxGeometry x="280" y="-490" width="40" height="30" as="geometry" />
        </mxCell>
        <mxCell id="ixohLx9MUgiwNv5kSg_m-31" value="" style="group;aspect=fixed;fontSize=11;verticalAlign=top;" vertex="1" connectable="0" parent="1">
          <mxGeometry x="106" y="-640" width="72.21" height="49" as="geometry" />
        </mxCell>
        <mxCell id="ixohLx9MUgiwNv5kSg_m-19" value="" style="rounded=0;whiteSpace=wrap;html=1;fillColor=#dae8fc;strokeColor=#6c8ebf;verticalAlign=top;fontSize=15;" vertex="1" parent="ixohLx9MUgiwNv5kSg_m-31">
          <mxGeometry x="-7.105427357601002e-15" width="72.21" height="49" as="geometry" />
        </mxCell>
        <mxCell id="ixohLx9MUgiwNv5kSg_m-20" value="" style="shape=image;verticalLabelPosition=bottom;labelBackgroundColor=default;verticalAlign=top;aspect=fixed;imageAspect=0;image=data:image/png,iVBORw0KGgoAAAANSUhEUgAAAPoAAAB/CAYAAADGkd9WAAAABmJLR0QA/wD/AP+gvaeTAAAACXBIWXMAAC4jAAAuIwF4pT92AAAAB3RJTUUH4QUYFTgdIvUjPgAAIABJREFUeNrtXXecFdW9//5m7r3bgaVJURDpoIhd7GLBghU1liRGMYkmCok+Y4sx0eRpEmPE5CVKJEZjL4lGYtfYFYmiIioI0jsCy7K7t8383h/3zL1nTpm5i9KSe/zg7s7MmTnt1xtQaZVWaZVWaZVWaZVWaZVWaZVWaZVWadtCo8oSVFqlbfuNmasA1Ik/s0S0sbIqlVZp/xnAXcfMVzPzSmZuZeaM+Ncm/v2QmZ3KSlVapW2fAN6TmR9h5jyX1x5n5sYK615plbb9APkYAM8ol5cAeAdAM4DPAOwLYEcAeyrPHUtEz1RWsdIqbdsE7uDndyUq7TPzTPUZw+8LFOp+QmVFK63Stl1g764A7NnM7MhAHdH3AKXvd9V+Fda90iptK1NzIgIzrwfQQcDkhUR0BzMfBOAQQ7c1AJ4hokVS/yEAZgFwAKwnosbgXqVVWqVtG8B+jkSNfyZdfzpGCXe28p5bpHt3VFa20ipt2wL0oK1Vrk8tQ+O+KzPLcv4cScavDt5VscFVWqVtXSDvG/wK4HbLY5NJagBGAtgg7l1DRAH7DgA3S2L5kC8F6GPHT6jsUKVV2lfTRkiA+ajlmaQi038A4FNxyQvuCXn8Xqlfz+CXRPnAPRFTp0zCKd/6PjIEZ+wFE/cA87kA7S4PpIScFCUAiUEaroMZhjuhfii+0axcYBSVEiAQ1DdG/62MVxpr4bnwd+W++shZmhgszyjXxRqg+HvpfngpqLz3WdaQxMtZehcsa14cj3FfzfsLbucR1/ro7y3NqXAv4qTo9yzvL71JXwf1e1ZKXHiOACxi8PMEuh/g9NQpt/ljL5iIqXdOKncVGiVAfc/yjCOAvApAjpn/hoItHQBeCy0pUaukcT8XwNPAJmjdjx8/4VkCHcDg+uIhhbKgZW06A0QAqwfedhhKz5sOX9QBCL1D20QdwOIPZNS7I55D1Dg2ifGz998UwIsCHtv7KGrv24EQrMiljLlakFyAKMk2BlLwMpeBOMmwfSXEPJeILpl656RnAsJYBuv+TQB3CyAlVUYHcHzMgnQA0Cx3ZebHAZwE4AEiOrss1j1g08eOn3j82PETPQIdDaA+oHbgYIMMQyB10Vm6TiVKHQxSdgQorZ5ElszIQqfOZkDk4jNkgED7ZTBD7srgEOCyRCkiYZJLc5c/wqaeobEwjMwMkbjH8XBBEQiIoK8dQQcS9Tkj0HJ4fJGLoe4zRYyNzN8xjVPsD4n/tDPIRogzLA2Zhx76yfLzA8B4euz4CfdPnTIJY8dP3Jws/wIAXYmo2WBCO1b8rCqLdR87fgKmTrkNY8dPOAnA4wFA+ezDdVw01NUhlUzAIUdjoYsLEGKnxd6zicop1BXR2NYM1yzvfAg+5fewoB4UcAgmDP9lqaRKwYvcSLlUTuoTUDsjR2OhNta1MbPH6sG2PaWKO3EUP5LTiuH0wqNWRDKS7rN5/81rpl+L56tYE8WCj+RyeTS3tsDL50GOgAOms8aOnzjSgze8jBPjSZR4fyJ62/DMHUR0ITNfD+Baca0aQJPlnSnx80ZmJiLiSEAXQN4NoL8HB8HzPBx+4P645JunI+G4cF3HRALtLHIsj2+hzOVBVARklvscNhGSqIy/EcMzRvG12ETZotxnosYbxfNGrRGX8e327F+58mG5327Pfpvn7fk+8nkPtz/wNzzz8utIJhIBkhnqwn0GwJiYj3wg/T6Kmd82UOiU4Hx/wsyvAXhOKNoeBnCqwu4fJv2ZJiKOldHHXjjRQQ7LAXQHGEQOrr/sexg5ZGBFV1pplaZC7KdzcfWvboPjODJO2GPqlEnvx8jpAfZ4j4j2krzdAhn9LiI6X7r+tlDGEYBdBBvP4t4rAA4W9xqJaH28jJ7HIQC6g4Bc3sPXTz2hAuSVVmmWtvuQAbjh8kvg+b4sN/6xjK7jxc89mfkbVv6iROnPl4j0Q0QUAPnXUHCZJQC3B0AeT9EvmPgYM59KALp37YopN10buv/mjJm465EnsWTZcpAT0ryBKVo2M5mtVNa/bPmOFCUJoaR0ccigzW2P1lsdi/w3FHnPZlqLWGppCDbfZAaDmGDWDXFBRiVdTo79djvE5kAJaRqHfZ/KsGiEFJ7hPTGbRDd1PuVaOMzPmeZYXV2FQ/fdGxeefSqqUiUL8//+4S689d4HxaPg+36fp/78u8URFL0awDIUTG0ZAJ2FmexJAGMB3ElE31b6XAPg5wIBEDP3BrBIEO+NRNQgn6dEzOKfGkxu792Ghm7d9dhUPDL1OTgOIZFwYxZMVZIxqMhMsAEwHHFdfya02dK5kO3EUO3FVJ74VlIkli++saThbb/YZ1E+agfMMdj2I8xqCoDZfAiYJMBl2z5RtMLM8g0NOCjG/yDSLNcOhGHbV415Vc4HRxGk8JoEn8hlc3ju1TfwyrTp+OstP0ddTcHj9OQxh+Plt6ejKpUCGHDIOQrAnyModVpQ4+eEpnydCDc9D8DOAGbIQCvG8Fvx/Bxm3gfANGnRTlM4ADvrPvbbExsCypX3Pey8044lCT+Xw92PPgHXdXQKpJpDCJGHh63sSRg6WfxX2BgKd2YZ0EqQZDWPWLTSBLJaqsI3WLLumEw4iIJc9RWytUl6i6IJF3O0OuhQgYsKswjSvEKrSdq75XUOrykbxiU/J42TDEjT8F31d31xSEJYUOZj5kVZ5Q4kpGf+VsFtNE7/qfqKUHHshYuO4yCbzeHRp18sdh3Wf2f4YXPdiBgZHUT0vMTCpwA8C+BCAHOIyJPXUri8tgKYD+AqAG9IK/IXInpW/YZdRvfRIZgo+4wO9XXFW3PnL0IqmTTYf9k4ieK6sH4gKHrHihcCgCra7mU7Ktk0uWYMbcbeVLKRR7DvGhJT+oTnF+1AQ8p7wqtC1rUt2fFLlI5ZUGcJKYaAhlCWLZ1Ctn35/+FxFb6lI4cQwg7hHA77Hyg2eTb5YkTtoxZvzTphUccXmosIBGGVE1LnwpKvhAUnEGHxipWhax3qG+Q/qyIZEAHERPRnQY2z4tYNAJpEWqmvM/PO4t8RzPwIgNUArkDJM/VKIjrP9I14F1iDM0U+n7ccRp0ihp1hyALMFldLiXIHlKzEWpOFJbAgjeAgs+5mWqSUTGHWUvgDBMBLbLYbk4HDMLGQikBeYn+5DHlRPEumebNKLREWdVifk7ZXbNBHkGyjjjoiZKZSKAG7JtuzOlqFpTeIWLJopYtYpnXROTuZ8yNtqSkE1DLlJhk5M0u7Q8Y18AOk1g7LnkBejwHoLKh1N4kVPy2iawZARyLK2PQ8TiyAs4ViUtmjN2DnMA2UZTiGASGQ5YDD4knHYUAuefDpwGdiT9UDoXDIMHYxObxwFKdBkUiK1YVnGKg/xQqpJFH0kmhi46IEcFP0Wuv6gBjgZ8s6UUQ/NonoZEamEWiyHEhjBShD3KN8cGTHOqIwRwYud2kiKbtY+xYi6g7gMAC3AZhneDyNQm65fQHUBlyALdFEIlJusFHNWCWIQatN4QNFqoKF4z0q9W9R2dSGI2RwEEmUS6JoRt9rivA4lZ8nIyWK1FRLVJ7ikGfouxStO26PjxDblF82d1CK4M5064ld4akoXFWvRTYr5grn1Dw+Mp49ff76uZA5AX0tyMQNEUUrbNsJ8KK9QkSvAJgYI9/HvtNpDzsWC4DaoSArG80K1WNVgWYxJdlleQWVknXxzFwLFJaN2se5RJl9ZBbW7JttQiKkyZS6UE2leVEZ7LRp/SiCnWPT2ppkFDMFZW0sbAYq01qzPm42sJeF+Yftqwy2nEs2ILQ4jsWyXmRHvuHXt9cFOObMbsIzkYAei4Vi8QDbn2NZ/uFN8IcGfAbyPiHHhJzvwPcVBQybN5sNau+ARSuaL+R7kgZXV+pwO5CRiTLFry9B4ZCMFILNQSzlLinJYGrnr0trWgry1BWrZFFM6krMIkfABhZds9JwWM/GUBSzpCgMDcFNVjdf9Z75euF7NoRAFgaFAKDHseMn1IasWps34KV81j2KslKkwsksa9mdHSieYxAbnvYS2KVDCwbVrcCONevRJdUCBz4AYKNfh2UtNZif3gGfNPcEeRmJQkNjIeVgGyp9xK68UdhUiqLeBuDXYpzj7PVsO4wm+ZeM7D0jbJKLNjeWFI42FtS+LhGigZGaUuzzqnI0hOjIdC+GEhk4JYo7ixy37qXfCwrqUuvSuSNWrVoT/HmyC7QI4J4J4D4AfwKwttxw1s0G6CoWp01QckTKyjbvNxPiYMIO1S24asjL6OvMRYYteqwOgEuA6wCnvnsZiPPSK0ra5+LBLWpZVdbbIC8CIFaZR9nAStaYC5ON36iNV51PNinWXbJQlCOrAvFxKuXEkpBZgWZCWEZfAI45A5JOxoaM7A4+OtIlxeHqy8buL12xKvT3uDFH4A/3PBjyCxHf3g3ATQBuGjt+4rnog3u2BLDHxqMTkYWRD5u+7HKcXdZSvY7C7GGh5X3CaTt9jFuHTkEPmos02xXQLFj6efnh8Dw/vLmsuOiqtm8DG8YltzuFcpLFLMH6N6gcLZiq2VetDmXoS0wWCjJYJGxyBbdTdFP3mg3yO7NBjjcpj0jHm4F4QBYLBpnFQbZpMmXLg91FwSqSGRdJOg4LFi/F6vUbireOO3QURu29BzLZLHzfh8++CQndjUV4fAvErpdhXmsHtbaznJL5IMQshwzaiitpYcHP3PkjnNn9OU0VQ1ByOUg6nRlru0IKkTd6kqlKIRUYwlQxnmVXWWhrdhJp9GZHDgWPFF1l2b4/ZMY1OkdhlinZoMy0im5GvKYMhsIKQ02O5zhrgsXEqVBvqxLS5prBisMUt0cJHUH6GUilkvjZreHcjtdc9C3cdfPPcMP/XIwfX/IdnHniMWior5PYfAaAk8aOn/DQ5gZ2pzyt+iYGRZCiWWU2UAtFASYBQ33Sx8ldXkbO18+1A8B1CK3cgGa/AVmqRYIKLkLvtewGh31ohluK0YzLh4zKCXaxL1HYi0+AtWoWU9waja9ngGP2IOThFUWVo6wMUBRkZeoMo5eGtTWIFqlJ3yMLpxGrI7BwL0QUw61wjMxvHhsRMH/xUjz50uuhXr27d8OewwZh1Mhdcc6Jx+D+W3+Bc04ZK1xki+88Y+z4iQdsTvY9EYkC/PI2Wg9WUJVNYZsoRdk8Rcv5Di4f8iISyMM3LPXLLQfhznl7I+uVBtipxsXYHjMx+wtHuHRFyNDWCDkyIPDws+H5BkFXusZWtRdrHl82hSZzhNeVHuBjC8ShCJOVaXyy30BUokmTDdysu5DRJ1sUtIrnpMWOH7D8kRyBSWYnKsj2IX8Nc7CVLZ2VTfZXlbsOgMkPPIpP5y/E5ePPsQ7t6ycdg71HDMWlN/wGruME6/cGNmPlJDug+yYVuxnMjRFJbFhELiMCSdzrXp3G0ORHyCvWqgQBT6wdjXvmj4BLksmFGU1tHu75fHjpuryZrAK2qn6zOLAErriyDGhh21k2AbFd8aXpJtiC9sgsShOgucMmEi6OO/zgUjqjSDar8NJ0Oo1Fy1fig09mg/M+qqpS2p5q0YVcEnGGDuqPU44ejUeeeh5z5y+0AIAdUEwIVlbWsg8cdciBGDFkACb9+T54nmdHOspaZbM5JJMpjB61D4YN6o+denSD67jwfR9tmSwWLF2BGbM+wbQZM+G6DhKuG2ltYGNwkNkR6+U3puHf78/EsEH9cdBeI9G9Wxf07NYNXTuV/N+H9OuLMYccgOdefROOCPEeO37iCQCe3ByUPRF7HmIT0VAJ27LdX1leEGtKXenX3jXr4Bk4vTTV4875+6KG2hQNdmEcrlX5RRYZTNOKavKmfFBNkWCa+cpCXY1mrlikp6clVseZ9/L41uknYdyYwzf5IHz6+SI89a/X8NxrbyGRcCVEEwb44Ltu0sVNl18M13EwYnB/nP79HxWBhaBTUDtys3nEEbp27oSJ554BAOjQ0IBrb/6doIAGsZmDtfCw25CBOP24o7CPElottz2HD8apRx8KBvDca2/j8edexoIlSyWAD1sCzIjPgL6Y4TgOWtvSmP7+R3jz3+/D930wM/YasSuum/Bt1FYXYlwmfutMPP3KG3CKYdk4duqUSU9uWYpelp9zmAUsspLFIBEoAMYhQ5sG5IKCej4woONGI4c7bf0QJDhdEC1Uc1mk73c0JSWbbMbxXoI2V0n1NJpjsbkkrxtTrVGYchhEAN9j7NClsfi19U0bynOLdBykkglUV1VhyC59MGSXc3DhOafjO1ffUHhHRMBDwnGQy+XhVqVQX1uDow4+AC++/lYhjZJBk60ht5JZPAw2xTn5uP7S7xe7dO/cSYg0+ruKIhUzxp85DqeNOazIkG1sbcWCpSvw2cLFWLlqNbp0bkTnjh0xfGA/dGqoR011FcYcvD/GHLw/7nniaTw69TmhIYdZ7LP5PxhYfyJCKllKSPHxnLn4432P4LLxXy9eO3CvkZj2/ofBGdp/y7Pu8CVdHUUjAoN2V8XqJupqtmMyPCQxqOozTbxkAJ81NyLhcEyudzN7F5JJ25uHPjI/ox6JpusqyMAWI3ziLesapctgRdGZzedx2vd+hLraGgXQdAztOIRkIoG62jpcedF5GLJLH9RWp3DvLTfggqt/gZWrVlu13mqbcO4ZeG36u8jn8iHgLtfrUUXC3bt2xk47dNWMGjYRIJvL4YoLz8PoUXsDAJauXI1rb/kD1q7foDmzBN+oTlVhj92G4srvfguuQ/jmScdiWP+d8eNf/x7JVDIcgRfHgbFN5g/P7ZVp74UAfZc+O+Kd9z8MBtV7ywM6OTEO+WW4cHKM3S7A3nCRTFaDhWIggSSGdlhd0hNI+sFWpzPcZK0GeL6XA/ycooRBKFCEGUh7CXSvAwbXLkTP2jZUO1mAGW1+NZa1pvDBxgFoSedR7Xp2ZazMzjsJ7N24GH1qm+DCg4cE5rd0wrR1fZHitEE+VZR5DHCiFq6jH2DfywGcC3EVqkwoh02GdN0K9eMQAi9c8zyG52WRzmRxyXU34tjDD8al5xcKdF53ybdx3uU/QU11taJwM0fAJVwXIwYPxLszZ4HIsXIf5ujB8HOZdBbnnn6S3RJh4DBOOOqwIpA/9/rbmPTn+0GOEJQcMzFIZzN4c/oMnPbhLJw77kScfOQhSLgJPSQ4So8T1m4aEba8d83NzaEu1VUpiRPkLa+MC6KCzBgUsKYqClHxuDxdhZ5jun+KCX2egmwlavF0Yu8D+GGvh3D5jvqZeWL1HrhjwWFIwg8BAouO1QnGbp2W48yd3sdA9zNkueBcEwzVQcGrLuUA77SNxP2Ldsfc5s5FF1tZORcAb8Z38fs9nkQfmgNJ+Y9EN2B930Zc9enXsKqtSsNxcox3QzXjgd1vgu/ra/xC05747ZxD4BLbxZOC2t0YEUtG5ac5V15VVQrPvfoGOtTX44IzTsROPbvj2NGH4OU33wEMWgLTtk4872ycOeEKVCVTdhO0rF1XqZ445716dsdh++wRQVr0wJazxh4NAFjX1Izf3/NQSYSIoElEBSSQz+Ux+f5H8acH/wYvny+kbEZ7bOzlcYU2N+TABEmbT+keFb3mWLm1Yow+sx7gxdFgbVq6YY3r0ZIHNnoFAG/xlLgHlP7OcuF+q1d4vtUD2jxgRnovuEWgDHu9De6cxpTd78ClfR5BL/oMrT6Q40Lm/KCHh8K1jR4wLPU+fjHgblw//AX4SEj2X0nWJgBOAv2dOchz4T3BvxwDdViHmwf/GXWJXGgzZWqY9x38YJdn0JwrzKPVK83tC+6I3849sgDkGjUL2ahEcgzzOjOXH6OaTCTxzxdfwYaWFgDAWccfpdu1SZdT88ILsXPHBow+YD/zYVB9zYmNVM/3fZxx/NGld+c9wxkM+0bU1FSjS6eOAIC7/jYVvuQVaTZ/656CrlM48clkIuYws5UwhtcoRgQsAwFsEUCPA1HmCDRgSYxgSvJAAPq6c1QuXQNwJZ+EksvAwfx1Cajcbx5JXNT/ddzQ7w64nLHtu3Y9+H1IaiYmjbgPvlMTxnCBgqg6Bw+wJtSqoiwuGjAdac8tzV1SzJ/W5xPsXjNHm68D4PJZZ8ERY7bKD4FLMam26zBrz5FFIcJ6g7znYa1w5aytqSloucmQ2ENqsz9fUPz9lDGHI5fLG0NKY+GFAB+E4w49AADw9gezsHTlqsix+56PUXvuXvz72ZdfD2ckLmnsdP2R6Z2K05Z12CZnQA04WFoyjtbxlCMObxZAp3DNSSsro7mRUkQoHxS/bYLjMOrdNiSowDonlKSoKsAnxDPBswkCPBCyvlOSnwFkOYmJA17GYR3ehce6PsUloNoB4NYi4Rb+VpGJD6CnuwI3Dn0MWi4xBnqllsMBkCLANWydD+CguunYpUMrQoMDo2PKw7huLyCnLJVDwG+XfR2r0tWGCE+9VlXYVKkf6rJYTsV0t3pdk5C7nUK5rRi2MpPN4pY/PwAAGLxzHwzo18ccKmoak4JELrugoKjyfB83T77HykbLMNWrWxcAwMa2DNhnQx5PMitVyYLp2Z7k0+TxGNJZEEIm31KCH1s0KEWQny2idQ9rOSPzdkceKCVaS812ysDzTQeiyvEEcBCO7vgmqqlV24tF3kB80NwXpLB9WT+BtJcIyV4X9p+OQxr+HeIUgqOX5wSeXH8k7l+0OzK5PBJuAsf3+gxf6/YUaiit2R4GVM3Frl024sM1DYJrKByDlZlG3LL4FLRwZxzY6QMcUP/vUNQnM5D2gdFdP8Y9G/cochweEvjl8PvhIq+dsVc27IO3VnSBQ2wgSizn5jEiW9v+WBVJBqQQ2JIZliQ+Smy+6zj411vTcP7pJ6BTQz2uveTbGH/FT8vI6x8+W8lUAqP22A0AsGDpcrS2tZlsndqYPaHgSCUTYTdbk8ctGxSqBqJq8qcI5b+zZRpWMwqxJSVY6IRt/hbtMONHMO9kp/XhtEq61rW0wASfGQ8vHFZ8wGMHew3/AL2qWkNH1SHglrlHYHlLlcQUyLnRShh+x/o8xnR8pahskwFpRb4XrvrkdLTlCETpAlVHHs8s3QkvLb8At+72ADo7X4SRAwNX970XZ62bCPjZ4jFYm0nh1VV9AADvrDoIy/s0YlzX55XCf8DxXadh8oJRqEUaHjNO6P0pGrEitMUMYH5+EG777GAkHM+YKz0a6ep7FZq7rdigImc65KCnoJCZbBa+5+kOLmxGGC9PexcnH3kounfuhMaOHbG+qcmKaChU8RLwPA/HHnRwMTf69b/7k0FnaKhh7wALlhUysKYSLhobG9HW2qogRg5R4wA5licXhz0rNZdoohjXYmXMBkDjL5GF5suz7mwyNsv3yVqqOABio1zCOrYk+CVZnBmdq7OafJ7lJDZkHDhUKkpCRV/v0hCTDuH6gfeGgDxgx9f7jfjBrLOQzgNELPKglwhFjl1MXnICUgYDgstZDK9fBrXcb0mkYDy7YpBWcqLQN4Ov950JAOjXIYPzej2tAbnjJnHj7CORoHw4ko/ic8UzsZEtDqWZ0jLsiCw8zKGcfVVVKXTr3AkAMH3mJ/AVVjhKirzj/seQzeVBRLj8O+cinckZuD3zmaqpqcH3zh4HAJjxyRysWLnaUIgBWi5/hxxMm/FhMY/6xd84Az77RsSoVmKNFmcikIz8Xo5ldKNwa3ifth6gR0VExKoSy8dR0kSrUgl0pCbti1nfhcdmryu5lsCwjstRgyZNUkg5wE0LzgD5+RIXwKS9542V3bAaPbQhegCGdVwJn8moWGQw1mVTmJYeBVf5dp6B0R3fBCiBy/o+ipzHmpryys8uQFMmCS1fG5t9wiHFakeZbFRuirT0XRRSyd36kx/BdRz4zJh01/0aJ0cR2fEcoFjIYMTg/hjYr0+E2qmkEWFmHLTPyOIzD019ruBRZjtyyse9fA6fL14KADho790xfOAAeJ4XShsW5aJszTEXX4cU5RNKG6bkzamDKwPQnRgVKUfp5GHJoGpBjlyKzh7RudmYYyDjp5DnRMkTjMI6BAajzUvgwn5vGjXqbzWPwNx1NbpCUCkVVO3k8Pq64WFFoHh8aO1c5NjV01ILziJBPibN3g8eJbUxdEmsx/0jb0H35BchS7ZLwPPrD8GCpmShTJz0HwzIxIaM2absYtOB0h1BkqkUJt94LXp3L7Dtt971AJKuE0EBDbnDHcI/XnxF0sCPRj7vGZN8lJI6ElrTaVzwtVMKepjlq/Duh7PMTKRVc024+ub/E8pMwq+unIBvnXEKvKJpjoAIXYM1bXNcgtJYHFAOkqBoONrsMjqzVRuoRoaRMYSTrMlUTEoQAsFnwsiGT+FxmG12AKzjHeCZXBIlR5LhndajBy1GWtHHOAS8sHoIEo4P2eHFpER0ibG8rR7opFtLetT58GWRhUpyW/BGz2fMbdsJA6o/N0yfNbb+vZZhmPz53khSPlqhKQUNybvABtNR9+7dUFtdbS7vLVp9bQ061Ndi+MAB2Gv4YAzou1MxiurG2/+CV6e9W1DKRfjum7T365s24NFn/4XTxhyOow7cF3c++HeDUi3c/dRjjkJDbQ0YwK8n342qVFWESGhuLS0t+P51v8T//ewKAMAZx47GsYeOwvxFS/D2+x/h47nz8em8+chmskgkXLiOWwre0RAn2wRqzTEs1tU3Yg80Dpi3gtadOTrXRpHUsW5+MDMCelkftXIIA9itblFRbCTJdD1r407WwQSLPKrzZ8j4+hcTDvDhhr4IKt2QHFLKpEkR69o8Iz7u5G6Az05ITxEccJmtvHfFaPxyl8+R9nV3f3mv29ARt31+VBHII+0+loovqhY+lXDx4K0/36TD8O+PZuPmP92D5ubmUhQXlyXAFp9LJhJ48ImncfIRhyCRcHHRN07HbybfY/Ucy3seThVBKOuamrFo6fJCdiBun1nZcRwsXLIMJ333MvzoO+fiwL1GoKG2BiOGDMQIqdR3azo+MQzDAAAgAElEQVSLhUuXYcHS5Zi7cBGWLFuFOfMXoi2dlkx5MZYKg3be6LHI7TGRl1vt9SsGdAcEH34pMaIaFkFcooyhAggRcriW8IVC6XxTroMutDTk30Yo2Khnbuyvx5hL78kz0L9mhTFW5d9teyCdy6PKiacODKBDtash4ILpTz2BZPSW+XBNB8zu3Q99kvNVXZgk87u48tOz0ZpTQ3ZNgT8RZaugK3ha05myjozjFOKwXbewMHvvOhjjjjkC9//jqWJwCnQDh50DFffTmQw+mD0Xew0fjP12Hw7HceAHPr5yumZmDBm4C3p1LwSvTPrLA4WYc9JTR0dSSknR5Xse/vcPU+A4Ds464VgcddC+qKutRtJNwE24qK1OYWj/nTG0/84ARhVf94+XXsM9jz2JdDpTzEKjV1qVs6eQkcEJxSKoNnuOkMf5K8hQuUkUXQmeYDUxP8OaHMGIoZRMIaYMqVVOGxzyNP2sS8Cspi4A2nSFVOA6CRe9qtdqzjYOgHeaBiFBbDiweqis7wMdqzyT2RUbvDph347OvFLtepi6YgS+v9N84yMpAiYtPx0r21JwYJITVV9wMiLNcIx/oWXyHsZddBlqa2pgTWApuKiEYF979+yBy7/zTXRr7IjTjx2NE0YfhPOv+BmaN7aYubOoQqhC/r7+tsl44o7foKaqCuecMhZ/efjvcF03/JxD+NnE7wIAFi9fienvzyw8U7ayC8aUZw4RwD7uf+KfuO+JqahKpZBKJpFKJtHY2Am7Du6PXQfsgv1G7lb0bThx9ME45uD9cdWv/w9zPl9gUdyRGcFLgBwSY1nNT0hbjaLHFnBge0SA5vOs5YIz+JVG1R+vcf2Sb7c07fVoREs6Zxhf6fDmfUK3xBdGiv7J2voCgJKqDdXZTx8OdnBXGt1aV7bobramg55MJPDNHV+1KMmA1V5nPL24V/FdmtzHbNfQqmyjweEqk8khm8shm81K/zLiZw7ZTBbZXA6tmTQ2bGzBx3Pm4uyJV+LmO+8tIKqqFH7/syuR9z2z8smiUZafzedyeHX6+0V5uUOHBs1UuHPvXuhQV6hr8I8XXw0DuYmgG6UGtioLiQrmt1wuj5bWNqxr2oB58xfi70+9gJ/eejuO/saFGH/l9Xhg6nMFsSeZxM1X/wC9duiO+LpYpjUhzRFIj4CLtzxtUUCnOAWIxoawvQRykIGTok0JHZKZcLSY6LqirUZQZLvA07kuCUcEd3CI3XaRzruhKsMwuV+KS3nfwaAOa4zEa0G2LxLIR2pJfRCuH/IoGmidpoMJnu7qrsXhvdeCfXVJOVohB7MPN5Mcca5nszVCjbScRITqqiq89MY7+J+bCmmMOndswE8u+W6EjTc6NZTjEB4SAAQA+48cAd8rpTxOZ7O46JtfK8rNjz71vL4WbFXKqKrzMGGS01yrDm5EcF0HqWQSNdXVWLVmLe557Elccv3N8MX5ufFHF4eSqajTNXnfWcGYyoRnLkuQ3wzmtYhKLeERc3n8XAT7x2DkGRjeuMGog1me6wGXPESFpLiObQYEjywhi8V67aXDk0omMVCSreWF+mxDp8J3SKeoBbmbcOHAj7BLcqFR+Rb8nWPgoh4PIOmSLZOWcsGs6S6uPNu04BGWMYJWE9x1HcyeNx9zFiwGAIwcOhCpRNIofsVQB4AIn81fgLdmfAQAuORbZyKTK3FlewwbgmG79BWy+f2oq6kJfcReVYa0eYSpKDSxRrbXm1Yl4bqYv2gxHn76JYHkOqBXjx5G65ApyaWsiTUVI+FyPY62ButeXETmWFY1VOyeLKmcIzTyRASfXexaP0/7hANgRZvwMSe7Ms2Edkph8Ryj1CmVyD2gy0LkDO7HDgEL2nYw9C2822dgr8aVGF3/ArwI5Wvwd7WTwbBO6xSqHl0SSIVemeWXVZNhzol04AxF71BI5mRm/PWJpwuiVHUVunfvWgxHjjVzhTg4RiqVxF//PrWoZznrxGMBMDzPwynHjC52m/7BrFBFk0iWvJhHj6UQXdLEOSI98T1FZMohAHc99Df4Yg5nnjAGec8rz8RnSGMumz2p7DI4W4F1D1I9WxNPkBqtJryP2FIsIUaxkmcHw+qWaHHoDgGLMt2VNWFFMmRsSPshYiXHdzllKHVIONSObnwPWdYBtBmdsKilwUBgC7/0qs/i2gEPaiEK5LhYke+pK2AB/KDfE2BKRjtKkAqfHFsbnAwFIrToqYi+02fMLP49pH+/gkupVoc5Oq994GGxYMlSLF9diB04/vCDkMnm0NBQj1Ejdy1Q87sfRDqTNohDUcE65rprZKsnb+NoDO3zRQVuZp8Rwwruv0r1l5DDlvIRigrwovha9pvT3X2TKrUwVCRAlj2J4h/D8nZjrYMOvDZcfUVQgiVtnZWFJo1dyuXzWM+N2jhceOhakwunXSezh5PjONitYb7GcjsA7lh6ElzkjN5ZDAfX9H8M2TxrnPGti8/A/84bh5Sjcx11/noc3n2u2TNLxQyBfz8ZDjMrNhFTBJZahTRCkZbJZkKKxcDXIEhPxZHcR/hzjuPgil/eBgDo0bUzDtpnL/z44m8XkGdLK156Yxpcxw3peeILPRgTFobnornWs1E/IS+y4xCahKWhrrqqyFWE4vtDZmIqP8EExxsQNidxtyvjnIg6VoZRafHFFD1JVbfeK7G86BEnd00SsLC1k1Rr2kxQEuRjUVsXDZn7AE7u9QGy7IbYSioFCoOZ4cPBjcP/AfKz2hg2+jWYsbpjIaDGMLEbhz+Jbu4qTZr5LDsEb63qjmUbU3ileW9tGXwA43q+g9Z8QtPcanZYDvuvy8onhq1+HCtsJFuTXMr9u3XtUvy9tS0tiFHJXzw+vj1ctnLtuvVYuHQ5AODKC8/F0P4F2fylt9+F73OYiiOmCotW+kqn4FROdVWDaOT7XLQCbGhpiwjr5YhkoWwtr2yDp80duRYJ6L7vR8Y665lLiqcxZEO0yVuq3NK7vq2YIEKm6ku5L7KB84Yw6ZkWzCXGjA07Gyc0qvZd9KtvNvNzDGS9BMb0Woi+iXmaCFtNwKNrjkHW1zcjywmc2mc2+qXmaSvxhdeIH388FgQg5Xh4ZMkemv6bAfR2l+H4PosRqXBQDwRDM+FoMrgE7KXig1SqIhtBQo46qORI8vGcuSByyucrWUUyBTPXnx5+Qig7E0i4LvKeh8n3Pxou2CD2tT0+36Ukmxz6Gaf/MpWr8pkxYOdCIM67H30CxyV7glOb6bOICClKu7rF5XQnagGjFpw1rbMcmqqWQo5YMNGjd2IZVL06A5i1viNckrAks45IRKdnVo8Mad+D8572gasG/hN1CQ8+UxGIfZ/gOg7G9Z2Ni3r8TeMGCMBHmYF4fFE/LViPmbFPl1U4u+szmriRIGDSwlPhcK74/NLWBqz1d9C2NcPAOd2mojrhw2OCxwTfd62HQK72yVKSItI1ozqVZAMlM5y90445XJi9Mli/YYPYPvW7cUQz7LX31rszMG/xsuLdB4XpLZzlX4kTLyMZIYPRpXMn7D5sMFKppKKEYyXVtZ3qs884/4yTi1cf/ufzcB23HUjHovSU/iBrpBq1G8G1t0XmdZcTRJoDIVlzxCciPQNsVDJ/EDwQetW1GTMCf5weBpc8Y4UUGegIhNZMHpOXn4Lzdvi7ttZdnWWYvNvteKNlX7y2bnd4SGBkzUyM6TwNSUqHaq4XAdZN4MbPTkCVmweUPPXVVSlc1e8hZH29susfl43Dp+vr4Uges0Qefj7vTPx+0CTkFIakzmnFlN1+jzdaDgIADK35HFfOOgkt+QRgmzegFYGwaqtlN9qI1Mu5fA6Xffc8NHYoKB0/nrsAuVze/F2j8pn1IFbx/prqalz9q9/hgrNOwbKVa/Dw1GcKaarUdxqj7SKoIQN/+dVPAQBNzS0Yf9UNyKTTRQJDJmcG1se9Q7euOOO4IwEAq9euw7LlK0JIw1hmSorT0M8/dCWLVYIowBFtnVRSjplAaEBtS5UTV7W0tHie72DHqpXa0jCA+etTdrfT4FyLxXWJ8cLyPjiu287o4SzQVH4ED4fWvYXD698qUXU260Adtwrf++g8tGY8zWUg5zu4bchfwX4ubCEAMC83GC+t2KkwZpnpYGB5MzAv0wd9UosM3APj0LrXRJINF1lOKbKguRIMRzkqmSgOh324mRnZXB5duzTiqu+dj90G7lIAmo0tuH7S7RqrS2rBCY0LtDOoLW2tuOVPfy3EL5hcXVU3aZvjhVylhhkvvPlvHHnA3ujYUIeHf3cjnnzxdUx+4FH4nl8IzrH4Wfm+j9Z0Bl8/5Xicf9oJRcC+/Je3wQ/y4is53otASeG8cLJi1JyMrvCro9TGKxaOxNai6AKGrcEqRFpJHZvVIE6+8thFr6p1YE/VPxGavSotHVDUN5iBSz48Hb8Z9hD6VS1CXiFwHhDKwa6+IkHA4lxv/OTj09CcCVhPCmnYrxz2GnZwV0Ip8YCNXIerZp0ABzkZCxU/4BBw28LjMWnwH5H3deIavK+VOyKdp4I7sMpms6rsolIQHQp+3iN3HYKaqqpoUZoLdvKunTthnxHDsfeuQ4r3mja24Kpf/a5kP2cb92BnYNUxB/2jihkWuzAZ/DcYJhul6zi4efJfsGbtOpxx/JFwiHDSkQfjhCMOxtSXXsP7n8zGmi/WYWNrq1D8ATVVKXRp7IQhA/rh5KMORUNtQQGXzuZw3a23Y82atdbKraQiTKh7Ek2Vd+rdK/T3yjVr5Xe3bHlA50KKp6ji7+ZEx4aFiAH63h0J1dyGNmW5fCa05ausnICRBQCQ4AwmfHg6fjjkbRxY/zYSAoSMAUUIJ418Yv3RuHvuEFS7nrZlPgOjey7EXjX/1lYmScAtC88CcTZMpzkcxLO0OYlfLvwaLtvp4aIVgRU+amZ6mEBtCivMsFb1DFIpJV0Xt1z9w006DJ7n4+N5C3DNr39XkslZRaxktxxF1Vc3EOhSySNdzCMihcpwGKBCsQUu7nv8n/j7cy/h5qsvRa9uXeC6Dk484mCceMTBsfP2fR9zFy3F5f97C3yfQWTgmALxhwx6hDJT57PPOOfEY0PXpn84Sz6Zn24Fih6uVGpG3VSK1lMid0gptWtcGPH7sOrZWuXUQM3U4qUErVOLFXK40qeSNKDGzeOPn+2DB1O74fDu83Bij/fQib8IVWchAaCf5gbisRWj8NHaBmzMJ/RyTMFw3RRO2XEWlnhDAUVp98LKQZj5RX0oKCesBBPqJiJMX9MDP2y5AJcOeg2DEp8WrQ1EQIZq8fSyQSAqp9Rw4b3JRAKPv/AK9hoxvHx2SgBTU3ML5nw+Hy++9W989vkCbGjeKBJQGJKHSFFamWwWK9euQ9+eO+Bf095TEBGK1pGiDkeJGAyLEOZYbocIC5atRK8duuHJF18TJaFNHF3hPa2tbbjomp+jU4cG7L37rjj+8IMxsK+9nNmcBUvw1Muv4533Z6JpQ7PEVofrz0dq2w1pqQLklc3lkc3m0KVrF+zUcwdceNY4DO5Xyqvwwex5WLJ0GapK3NcrmwvQrXzG2PETewNYAmLkch6unfAdHLjnCADA+x/PwY9umoSqVLL9XzOUAv7OoA9wRN3LgTNeEXgW+MNx+ftHwyU/psihzlHIf+fZQZ5ddK4BurhrkEQaIGAjd8WqTC3SWQ8pNy9848jIdgfIL51PFiRRyXzFDCQcvxB4I7PXRAYkV3pv2nPRqcZBY2IjUkhjAxqxvCWBKmRBZJmVsTBlgaJnMlkLr1LSaquHl4gKcekJVyjHTGtoPiqZbBYNDfVobWlDIuHa9yC0juWHYzIY+byHhvp6bGxpMbP9lvPl+T5y+UI23c6NHVFfW1tAYERo3tiKdU1NYN8X2WYM5sOycKV5Lp7vY9yxR+DIA/dD3149rL2/dflP8cW69SXCyugH0IItWx9dYuHbD8hx5sIwXRqUmBUC8kAF8N66bkWfO71Yod1MocqxCfKRIA+tGUIrOgLoKB9XVCdgdMQg1W+FgWo3H6sIK2WvYXNVWeHJVu16SGc9LM9WAagCyEc1ZWBP3WVX+jhEqK5OxVcwpei1VEzwkdVqq1KpYmqmkF5H1fRHxNbrYw2zx8lEAul0ugTkEVaDksKS4DounFSBQre2thXSWUmiTyqRsFY8VeVuNpW8JjNsVFel8JsfX4Y+PXewntJMNocJ19+M1WvXFWLnC3D20NQpkxZsedbdAeBDsoubWHuL3G7A4KGKItJ9lzx0SLRqxMoF8E7z7oViDabDEBdYYQ1mth8yU1EBimCbbemDQiYWQ5HDklZZBV79JGtKSAlg1Hxl5RdMQOxamLiG2PzjbEJR9vxresINATwcgZCsma+5FNzGsKyZUpeeTamg9FyJRpOmYT4J18XkG68tmidN7a33P8JNf/gzfN8vATmQAfBdbMZmB3SvAOwFGYuMiee1U2G0U5JiXyzJrHnfwQG91qJDogW+olRtQQ3mrXXgBOGpsi6AKFrRUwZ7aAo3LNuOaQMAjuFqVA22+g6llroREbEuw8QiIBh8tC1jUjOkkEFzLo9NzRjE1rhCfe2sehwgusCCcY0JZLtvKZhGBE3JaTw5xu+Fn8x7eZw+9ugQkDe3tOIP9z2K1WvXIZfLY+XqL7B+QxOSQehvCQHtOXXKbU2bE9Cja69JsbxG+4yaaFutQUWy2crBznVNSCZTIDeFuhTh8B6LcFnv+zVbNgB83toTDvnK5ksAxUr6XzIgHQByGIb8DIGMiQnCBiSOCbNnAzVAeRTIZLZRAk4oUhFHBpYXsAYDlCkVF5GC9NMkppPmcadWzLE4qhsgSeMUCPb1DLHbhuesU7fsjVIso5yyVabdSbhJfPPk44p/L1/9BU658DK8Nu1dzJ47H58vWoyW1lYkk6H4/jVwcODUKbd9PHb8hM0J51GsO0klmciocY/KvaaaUvbqsgpX9LmvCNS+MFdlDJlSqwh4bPVhIFOlDpkFNcqPEdSNDey5IfcXsYGqGQ+lQTzgeAVTFPdAcSy1ldKQXZcRwWWEn1esGTYNM5nY8WiuwpiwQXlWL3FEuonR+EWdRdediyLyLTPMSTjLUMgFYx6yy86h61MefiLsyxAu6ZQH8FQrvJNr/QQDwNQpt20lQI/ycIupiWVKLDOowwrkfIT82U0+RAzgmXX7Y8aajkiSr7Fyau3v0uGJKWZHiEovVnoHo2gGM7GPZvsp25VWynroMqmNfY8DGJYyh5Kd3SXL5kWw45qSStM5kBalZlP0laM/CA3V4BBkVnZGUN6QmCLP167nUc3D8pmyI5vSRnVU5PL3P54tr+N6EL0NxlwQHgPTh1OnTFqLLdjis8BaHygj80xRq0IYWj03lMbZ9LhLwEdtg3DXwv2QJN+o7ZSLJxTlVfnw2eTkSMQll4W0OaeYD4ZOyaP0FXZ2kIP5cLQeROUmjKa30NobkLLhORvFLQI52RSHMqKzSOgaAuBQTYBwUGtclt0IjiUGqYX3kTR9gSkOo4RsDI4ewdMMrSa75/vyOt439c5JFwd/jB0/EVu62fO6kwOffUl20bQ7dkqjHEaXGJ3dtdo6kSQltPlVeKFpP0z+fC8khLGNooIF2JBKmtWaanqaY7NpiSKVWmywrxNTCThNmkGmWMQZEiM0DzTWzX0GhBNaFwOSCGvmpbVTzF1kq6wjIc4oM5MskxMpdjpW30+hiroUSeJVhBkRI87qfllSNheRcERZaUOiDmpHRihFYgg5AGwOO/mmU3SfFeoWx3bp7BEXSyEDv136DRzZ+T2M6LAEnbmQMmojdcbHbf3x7OoRmLm6Fh5IALlB88xmTC1HTOl+8KRRNzOwQUMCsiytlcHlsIVRN4FRZGKHsH46gqIaNdRmc5MR0QZlfthAsVRJh1krOqlxNxIVNuvWzbXGrWy30YRGRqUnhyiraZxhE1hovCqiYpOUTyH+Rj7HpMQnmhC/VX/Amzdf+5eX0cssHGGsPRWShwv//3RNArO+GAXfp5DEQ/DhOoUaKGRDIMqYiko5W2if5lRBRgVKaIyK/Zsii9ebTYdmpBRHrkhTANqcMUKyok32V6KsIpGNsT/DlEjRBiBx0Yo21t5eo5xj7A0UQhC2OgEqpxPmvuzbQWxS7ikIHvG6GVY5iG0W0CMwkZwqJ6S0YrNSJACsBPyCJ8ymRuOVa++2BD+EKC/r0UZyeajy5EUL1TV455WDRMlIEdnAXrMBEbCBQikyalkBGNHP6widI9Sr0lXJGYhhA/A4omPgzMpkpc3inPmcxOpXjNwVW6QO3qzFE8tt8XndxW/5fCnQo6G+3pCyx4zWtIovptrUEVU5WFnxkF08JmBStZOHlXnhTKm62YxLaaush0jPxRbO90ZWk1YcsWfZn147TxZzpy2pIhvUCBbNfygXuTXmnLUsuHFUXZ4PRaRmtdds4PaVKyfDOYrYk9LzrBgy1PMZPs/BXlYrYcFxZtRtBtCnTpm0lIuJ/V0sXFJKAzSgT280NNQrkzan/zElFJSBl7Tii+EFJCWBsxyoH7fr4ZRTHM4gyuFDRxYsH11T1pZymK0un1DdXy2yrDn1k93SEdoDLsZ6KikkVcA3CtHlc02qw1RECmnVscaIrG0OKxR+R1yChgBJyUkxSbOMSFwnGZAhm0QWXXFLILRlMjh8/72LT7RlctjQ1Cx3Wrntsu6FKS1kcF8iwrQPZ+Gbpx5fvPebqy/Fj26ahPVNTXAdR4+sNmJ8i5KMDDZhY3aRkqxnNKuwrBwg5SBTqOCCyVRScONxEBlErRVH4Bh1sYnisXmN5LnZissbM5DGhfYFc4sBXiId+InCXpAcMS4NOuX61/aa6pASXJiWXF/GQhHFkplMivMNad9sETDqPkac2VBwT3iPAuR68blnYc/hg4uvefHNaaiuTsm6hLe3aUAHMJlAvwCAOfPmY9qHH2O/EcMAAP127IlHfn8TZn22AEtXrCg66FuW1Xjsy9H7mcDfVpUlSuojy/NsF7kj54Ayz2XUWDlG9I8RO8Ph2AaCHQU7NuLMMdKnNYBVYmSojPtxaxC1rnEoTZubiqvKOF8cOxZGbU0tDtxrhDaGx597uZCrXuh8pk6Z9Mw2Duj0EIN/QSgU4fvVHXfh3lt+gZqqVPGJ4QN3xvCBO6PSKq3SgGt+8wcsX7VKFjGv3hbGFRnJP2fGtHWD99yvG0D7AoVUQ0+++Cr67tgbO/boVtnVSqs00TK5HK67dTI++GR2Mbut0NeMG7TX/pk5703bquOLFNrGjp+IqVMmYez4ibMBDCoqG9Jp7DpkEE475gh079KIRDIRGWhUpkm+7Ofa+42oIsS8lRefv+T84zaWN0O/cve1nPuwazBiWegvs6Zf5qzJSr+NLa1458OP8fiz/4KjZQihw6ZOmfTKtoCIytb9jx0/YTFAO2oAw769WGmEEBb2dLIogizvKMvXyJrTkkW++njNrfxcu7LdKqGU1A7IioyHjrFrq95rsLm1ljUWyeMrEnK4pMC0eQODvxozU5wAL62gmoTCvD9ha1FsFiPD94moZEUJj+N7AP1xa7i7booyrkjVPXB/F/RLAD8IzZ0ca6FINpmSNPQSruhijKCiqFBNtqe7ovJwHCsBMswMR1ge2WAY1FxXbXOUDzpRmVokizrOYBc2+50H6+WEr7eHlEX4NJBUVST8fSe8J9ZqK9HRbsZnZWsJSWseo7207o2yP/F1AtlcjdaY4IKbGTTqn1Num7U1gle+AooesPET9gDoQgDHgbCjrbBA9IEq1/+3jOeo3HxyFsRgHWeMd9wmyx8Wz6xI3tPex4QYy6GCUX6P1vGQPaOvyQXaNj7bmI2BJe3ir02+6FE8G9oRux95DjwArzD43n9Oue2ubVGHkCj3wRILQjOmTplUzG819oKJAwEk5RRPxQAJB6IUikKpQ6FBVDJdqwnOfbv7aICtI1NJQwaSUsisOSoqeCcEIpA96GLg3hJ3y5G57kqJDG12o8DhQw3OMMaTh/KsQQ+0UNhxYi4lFyE5HlvpqrDhWthqcekNCT5ElJ8Wa8N2pxjTElmTaajSgy8XteDwt7UzRGbW3kC4tHiO0nwIhCVT/zSpKSCG/3Ht+M2c+qbSKq3SKq3SKq3SKq3SKq3SKq3SKq3SKq3SKq3SKq3SKm27a19ZVHxgXmPmKgDdAVSL9y8joo2Vpd6+mrSfvQDUicurATQTkcfMtQCqAGwgIm9Lj8vwe0qM0yeipna8rx5AkojWVXa9/EUbzMw+M3tcajMqK7Pd7iczc17ayzQz7yHu/V7s9dCtMK6rmflK5dqZYozz2vmuJzg25c/23xJf4eI7AB4XVPxNAH8Ut5oqILP9UXMAl4k/1wL4PoAgNnmhdHYIkenINlv7hfh5k3QtiMRMtfNdyf+GPU18he+qAbAjgBwRHRQqhlhp25c8V2DZDxa/d2dmIqJtieq9AiBf2amtA+hAwTHwzeCwVNp23XYAsJaZU0SU3cYQ0WGV7Wlf+9JslyTetImfXsxztveQ6fdNGEe7vrsZWN4t0v/LrlcZzRdAld2UMZbzXHvXi5nVeW/R/dla52qbAHTB5t0K4DUAtQD2YuZXmPk18e8a6bk/MfOTYqF6MfMvmPltZn6YiGSdyAnM/CaH2wvM/I2IoRzNzFOZuUXq8wqA732ZQ8HMVzHzO8pYXmXm3zCzEy5FRGDm85h5OjN/m5mvZeZ/Sf3eYOYJEd8bycyPMvMaqc+/mPladQ5ivd5j5ncAHMDMj4j1lvvdIHQn7Zl3DTO/DmBXAB2Y+XVpL1+K49QkQPw+M8+RxvMJMz/IzLsq6/UgM09j5mPk+Unrfzczv8vMu4jYb2bmGcw83TKWemb+P2XdW5n5KQBD24lUUsw8gZnfkt61iJnvBjDkv1F5cy8zzxfa9jZmnsvM88S/X0vPTWfmVWIjgraemX8lPXOquN4s3nMRMy8RfwKKWTUAAAaTSURBVDMzn2X4/q7iXkaM40JxGDaI61dtwpyImR8T/VvEXKYy80JmXi7m+oYKSMx8naKlni/6zhfjY3m+Ur/OzJwT753HzFcKhLJKaLfvMfSR2xppzeeKdzEz/6Sd865l5gVi7B4zfy6991PpudvF+4cb3rFY3FspkP7dzLxUssb0k54dLq4tVTkTZh4n7j1vmrdy7RxpLTaIfQrGvUi611FBKE8Z3hX8/ET0WcbMjzPznWJtgjbiv0Bhry1KrVjgf0U8O11apJeYuYqZqyUM2lschpWGvj0FElE3pV56Z58IYNi1ndjcFf0+ZGZXuZ8QiISZ+XwLoF/DzA0GIGoN5iCtXYqZN5rGKRBOq7h3nGVuuwj/BfleXwHsSzZxX99k5i+YOWnZbw3QxbqNF9fvVvo5EuC+rbzrZnH9Aek9O8hnQQHOKEBfyszVKgAKIGVmvkW5/pTJvCYIDDPzs4b9Pyrg0P4bqXqdAPSXYwC9mZl3N7HTzHypWMCvWfr/Wdw/Vbp2vrh2saXPQeL+5e2UgX8u+p1u6sfMjeL+Cgugj7a8N2Cvz5WuDRBU+wFLn76izzNxB17pt3RTbcSCXf1COKKY7hspOjPPFgi5xrJuQeulIIj54voogWRXir/H2N5hAfTFFsS9j7i/MA7QBVLyLAhA5lqy2wt8bg0baBuAWRbN/P7i5zuWvo+Knz+Uru0sft5v6TNT/Ny7nZaAa8TPlaZ+wpMqB6BOeFepzZZhN7D9dpIOThIFm/R9Fj3IQqHkHNbOOfhbYX8HAfiCiNosYw1s4D3lKQI4Qvz+JoCfouBdeS8RPftV6JEAfCD+7FNGly5i7R6xvAsAnsd2ZINPbGPjOV38vJyZ1xruBxg0I107SFy/gplzljlmlIPVnkPyasTtNwHsifYlPApY7OsBTBIKqcDL61xm3t/QxwOwHhaLxjbYOjLzDdBdrD0ARxrWmAF8LkSTpwD8GAV32/O+Kn8MIsq2g7kJcg/tzszXWQB6n+2J405so+O6KOZ+g/J3CsCPYvp02MbmWGWgvKfF9HG3k3NVL4C17LMnnHKeloBxDhFtbaeYQYK72O7btgboWQG0PYloRZl9kqJfDRH5MXJnuz28mHkoEX1io1xof2BQQJUvk66tEj/HENFzcYrC7cAZaSmRnho8huIyMwfu0isBHMjMOxLRkq04j78R0bj/gP3YKjJ6VAs0tY1lOlwQgL8K5NCnnMOkKlUiWmDS6WxTyAAYCaAVQLpMpAEAB4s/a6VrxXmXKW9+qWZQgn7V++huwpguEVzXvwDsKy4vZuYuX4UjEjOP3ISuW2Q//hsB/f2AhS1nAQXgBtTw3vYqaJj5YGb+H2buYXgkUOKNVu27ou9Y6W+vnMMm5nSi6PNr6aBkBPt+/ZZYZDH+b4m5D/uKD+vrAHowc6d2eNF1BXCb4MyOJ6JFAC4Vt3/3Zccn+gf6nzvLeH6NkNEPF/4NqLTSZpVrXlvFzAkL1m0QYZFtIgyyh3R/F2Y+mpmPV/rVCjMQM/MtzDxCutdR9DmGmTsYvvnbwKRjonDMnBXjuTmw0Qub9xjhUBIyE4n7gXntCmY+RLo+LjDlCG82dSxzxb23mPlw5V4wh+7K9Tjz2mLbfeFQovkBSPc31bx2seQsdJpskRAOJkcHDjPSOgdOKAdKZ4GY+VOTiTPGvLaamftK149i5nva4zAjrn9PPL+RmY9Q7h0h5jHyvw4JCEDPMvObEc98yMxNJkCXnvmJZEM1NkOffZl5HUe3/Qz9bjUBunT/O5I3m9pyQrMMC6Db2jJmrrEgls9i+p7ZTkBfFQHoi2MA/V3hEVhluT/F5ojEzHfEzEMWoa4Slx4xvKePuNcmI2oLoH8z5pMr1Bh20e+FCM+4Pyi5FdQ2f3uBT9pMQK/JLuUqLaTMJmcg7E9MAN4koufVd0l9jpHku6C1EtHNm6JEkd7bEYCcnd8nop9b+lwnNLVni/EHbP1GIrol7tvM3AmFsleyYjFJRNfaxh+33rb1KvfvTVVAMfN3AMhiUYqIfiwDU3u+o/aR9if4uQ+AYw2vuoWINsase9S9nyFs2nQA3EZEayvh2F+hsujLKo42B3sVES0XUPQjt9SabE97+J8yj+2tOdvioKIw5KZgz82Bcct4J23h720Xe/ifMo8KoFdapVVaBdArrdIqbcu3RGUJvvI2FcAaAB9XlqLSKq3SKq3SKq3SKq3SKq3SKq3SKq3SKq3SKq3SKu2/rP0/8A441Wp5ix0AAAAASUVORK5CYII=;fontSize=15;" vertex="1" parent="ixohLx9MUgiwNv5kSg_m-31">
          <mxGeometry x="5.645274642857132" y="18.05368421052633" width="60.919450714285716" height="30.947142857142858" as="geometry" />
        </mxCell>
        <mxCell id="ixohLx9MUgiwNv5kSg_m-32" value="BMS" style="text;html=1;align=center;verticalAlign=middle;whiteSpace=wrap;rounded=0;" vertex="1" parent="ixohLx9MUgiwNv5kSg_m-31">
          <mxGeometry x="6.10499999999999" width="60" height="19" as="geometry" />
        </mxCell>
        <mxCell id="ixohLx9MUgiwNv5kSg_m-38" value="" style="endArrow=none;html=1;rounded=0;exitX=1;exitY=0.5;exitDx=0;exitDy=0;strokeWidth=1.5;strokeColor=#9933ff;" edge="1" parent="1" source="ixohLx9MUgiwNv5kSg_m-25">
          <mxGeometry width="50" height="50" relative="1" as="geometry">
            <mxPoint x="206" y="-640" as="sourcePoint" />
            <mxPoint x="206" y="-770" as="targetPoint" />
          </mxGeometry>
        </mxCell>
        <mxCell id="ixohLx9MUgiwNv5kSg_m-39" value="" style="endArrow=none;html=1;rounded=0;strokeWidth=1.5;strokeColor=#9933ff;entryX=0;entryY=0.5;entryDx=0;entryDy=0;" edge="1" parent="1" target="ixohLx9MUgiwNv5kSg_m-25">
          <mxGeometry width="50" height="50" relative="1" as="geometry">
            <mxPoint x="206" y="-460" as="sourcePoint" />
            <mxPoint x="205.8" y="-595" as="targetPoint" />
          </mxGeometry>
        </mxCell>
        <mxCell id="ixohLx9MUgiwNv5kSg_m-25" value="IMD" style="rounded=0;whiteSpace=wrap;html=1;fontSize=15;rotation=-90;" vertex="1" parent="1">
          <mxGeometry x="182" y="-627.5" width="48" height="24" as="geometry" />
        </mxCell>
        <mxCell id="ixohLx9MUgiwNv5kSg_m-42" value="" style="pointerEvents=1;verticalLabelPosition=bottom;shadow=0;dashed=0;align=center;html=1;verticalAlign=top;shape=mxgraph.electrical.resistors.resistor_1;aspect=fixed;fontSize=15;rotation=-90;strokeColor=#ff0000;" vertex="1" parent="1">
          <mxGeometry x="230" y="-700" width="50" height="10" as="geometry" />
        </mxCell>
        <mxCell id="ixohLx9MUgiwNv5kSg_m-43" value="" style="pointerEvents=1;verticalLabelPosition=bottom;shadow=0;dashed=0;align=center;html=1;verticalAlign=top;shape=mxgraph.electrical.resistors.resistor_1;aspect=fixed;fontSize=15;rotation=-90;strokeColor=#ff0000;" vertex="1" parent="1">
          <mxGeometry x="230" y="-550" width="50" height="10" as="geometry" />
        </mxCell>
        <mxCell id="ixohLx9MUgiwNv5kSg_m-44" value="" style="endArrow=none;html=1;rounded=0;entryX=0;entryY=0.5;entryDx=0;entryDy=0;entryPerimeter=0;exitX=1;exitY=0.5;exitDx=0;exitDy=0;exitPerimeter=0;strokeColor=#ff0000;" edge="1" parent="1" source="ixohLx9MUgiwNv5kSg_m-43" target="ixohLx9MUgiwNv5kSg_m-42">
          <mxGeometry width="50" height="50" relative="1" as="geometry">
            <mxPoint x="180" y="-570" as="sourcePoint" />
            <mxPoint x="230" y="-620" as="targetPoint" />
          </mxGeometry>
        </mxCell>
        <mxCell id="ixohLx9MUgiwNv5kSg_m-45" value="" style="endArrow=none;html=1;rounded=0;exitX=1;exitY=0.5;exitDx=0;exitDy=0;exitPerimeter=0;strokeColor=#ff0000;" edge="1" parent="1" source="ixohLx9MUgiwNv5kSg_m-42">
          <mxGeometry width="50" height="50" relative="1" as="geometry">
            <mxPoint x="240" y="-670" as="sourcePoint" />
            <mxPoint x="260" y="-770" as="targetPoint" />
            <Array as="points">
              <mxPoint x="255" y="-770" />
            </Array>
          </mxGeometry>
        </mxCell>
        <mxCell id="ixohLx9MUgiwNv5kSg_m-47" value="" style="endArrow=none;html=1;rounded=0;entryX=0;entryY=0.5;entryDx=0;entryDy=0;entryPerimeter=0;strokeColor=#ff0000;" edge="1" parent="1" target="ixohLx9MUgiwNv5kSg_m-43">
          <mxGeometry width="50" height="50" relative="1" as="geometry">
            <mxPoint x="255" y="-460" as="sourcePoint" />
            <mxPoint x="260" y="-520" as="targetPoint" />
          </mxGeometry>
        </mxCell>
        <mxCell id="ixohLx9MUgiwNv5kSg_m-1" value="" style="rounded=0;whiteSpace=wrap;html=1;fontSize=15;" vertex="1" parent="1">
          <mxGeometry x="29.999999999999996" y="-566" width="40" height="80" as="geometry" />
        </mxCell>
        <mxCell id="ixohLx9MUgiwNv5kSg_m-2" value="" style="pointerEvents=1;verticalLabelPosition=bottom;shadow=0;dashed=0;align=center;html=1;verticalAlign=top;shape=mxgraph.electrical.miscellaneous.batteryStack;rotation=-90;fontSize=15;" vertex="1" parent="1">
          <mxGeometry x="10" y="-538" width="80" height="24" as="geometry" />
        </mxCell>
        <mxCell id="ixohLx9MUgiwNv5kSg_m-3" value="Module 1" style="text;html=1;align=center;verticalAlign=middle;whiteSpace=wrap;rounded=0;rotation=-90;fontSize=15;" vertex="1" parent="1">
          <mxGeometry x="-20" y="-538" width="65" height="25" as="geometry" />
        </mxCell>
        <mxCell id="ixohLx9MUgiwNv5kSg_m-5" value="" style="rounded=0;whiteSpace=wrap;html=1;fontSize=15;" vertex="1" parent="1">
          <mxGeometry x="29.999999999999996" y="-654" width="40" height="80" as="geometry" />
        </mxCell>
        <mxCell id="ixohLx9MUgiwNv5kSg_m-6" value="" style="pointerEvents=1;verticalLabelPosition=bottom;shadow=0;dashed=0;align=center;html=1;verticalAlign=top;shape=mxgraph.electrical.miscellaneous.batteryStack;rotation=-90;fontSize=15;" vertex="1" parent="1">
          <mxGeometry x="10" y="-626" width="80" height="24" as="geometry" />
        </mxCell>
        <mxCell id="ixohLx9MUgiwNv5kSg_m-7" value="Module 2" style="text;html=1;align=center;verticalAlign=middle;whiteSpace=wrap;rounded=0;rotation=-90;fontSize=15;" vertex="1" parent="1">
          <mxGeometry x="-20" y="-626" width="65" height="25" as="geometry" />
        </mxCell>
        <mxCell id="ixohLx9MUgiwNv5kSg_m-10" value="" style="endArrow=none;html=1;rounded=0;exitX=0.5;exitY=0;exitDx=0;exitDy=0;entryX=0.5;entryY=1;entryDx=0;entryDy=0;fontSize=15;" edge="1" parent="1" source="ixohLx9MUgiwNv5kSg_m-1" target="ixohLx9MUgiwNv5kSg_m-5">
          <mxGeometry width="50" height="50" relative="1" as="geometry">
            <mxPoint x="86.8" y="-558" as="sourcePoint" />
            <mxPoint x="86.8" y="-566" as="targetPoint" />
          </mxGeometry>
        </mxCell>
        <mxCell id="ixohLx9MUgiwNv5kSg_m-11" value="" style="rounded=0;whiteSpace=wrap;html=1;fontSize=15;" vertex="1" parent="1">
          <mxGeometry x="29.999999999999996" y="-750" width="40" height="80" as="geometry" />
        </mxCell>
        <mxCell id="ixohLx9MUgiwNv5kSg_m-12" value="" style="pointerEvents=1;verticalLabelPosition=bottom;shadow=0;dashed=0;align=center;html=1;verticalAlign=top;shape=mxgraph.electrical.miscellaneous.batteryStack;rotation=-90;fontSize=15;" vertex="1" parent="1">
          <mxGeometry x="10" y="-722" width="80" height="24" as="geometry" />
        </mxCell>
        <mxCell id="ixohLx9MUgiwNv5kSg_m-13" value="Module n" style="text;html=1;align=center;verticalAlign=middle;whiteSpace=wrap;rounded=0;rotation=-90;fontSize=15;" vertex="1" parent="1">
          <mxGeometry x="-20" y="-722" width="65" height="25" as="geometry" />
        </mxCell>
        <mxCell id="ixohLx9MUgiwNv5kSg_m-15" value="" style="endArrow=none;html=1;rounded=0;entryX=0.5;entryY=1;entryDx=0;entryDy=0;dashed=1;fontSize=15;" edge="1" parent="1" source="ixohLx9MUgiwNv5kSg_m-6" target="ixohLx9MUgiwNv5kSg_m-11">
          <mxGeometry width="50" height="50" relative="1" as="geometry">
            <mxPoint x="-17.999999999999996" y="-638" as="sourcePoint" />
            <mxPoint x="22" y="-678" as="targetPoint" />
          </mxGeometry>
        </mxCell>
        <mxCell id="ixohLx9MUgiwNv5kSg_m-36" value="" style="endArrow=none;html=1;rounded=0;entryX=0.5;entryY=1;entryDx=0;entryDy=0;strokeWidth=2;strokeColor=#000000;" edge="1" parent="1" target="ixohLx9MUgiwNv5kSg_m-1">
          <mxGeometry width="50" height="50" relative="1" as="geometry">
            <mxPoint x="320" y="-460" as="sourcePoint" />
            <mxPoint x="58" y="-486" as="targetPoint" />
            <Array as="points">
              <mxPoint x="50" y="-460" />
            </Array>
          </mxGeometry>
        </mxCell>
        <mxCell id="ixohLx9MUgiwNv5kSg_m-35" value="" style="endArrow=none;html=1;rounded=0;exitX=0.5;exitY=0;exitDx=0;exitDy=0;strokeWidth=2;strokeColor=#000000;" edge="1" parent="1" source="ixohLx9MUgiwNv5kSg_m-11">
          <mxGeometry width="50" height="50" relative="1" as="geometry">
            <mxPoint x="45.5" y="-740" as="sourcePoint" />
            <mxPoint x="320" y="-770" as="targetPoint" />
            <Array as="points">
              <mxPoint x="50" y="-770" />
            </Array>
          </mxGeometry>
        </mxCell>
      </root>
    </mxGraphModel>
  </diagram>
</mxfile>
